<svg width="18" height="18" viewBox="0 0 18 18" fill="none" xmlns="http://www.w3.org/2000/svg">
<path d="M17.6875 6.60087C17.6118 6.36758 17.4692 6.16171 17.2773 6.0089C17.0855 5.85609 16.8529 5.76309 16.6086 5.74149L11.9688 5.34149L10.15 1.01649C10.0553 0.789554 9.8956 0.595704 9.69097 0.459352C9.48633 0.323 9.24592 0.250244 9.00002 0.250244C8.75411 0.250244 8.51371 0.323 8.30907 0.459352C8.10443 0.595704 7.94471 0.789554 7.85002 1.01649L6.03674 5.34149L1.39142 5.74384C1.14614 5.76445 0.912399 5.85702 0.719516 6.00994C0.526633 6.16287 0.383193 6.36933 0.307183 6.60345C0.231173 6.83757 0.225978 7.08892 0.292249 7.32598C0.358519 7.56304 0.493305 7.77526 0.679705 7.93603L4.20392 11.0157L3.14767 15.5892C3.09182 15.8285 3.10776 16.079 3.19349 16.3093C3.27923 16.5396 3.43095 16.7396 3.6297 16.8841C3.82845 17.0287 4.0654 17.1114 4.31093 17.1221C4.55647 17.1327 4.79968 17.0707 5.01017 16.9438L8.99455 14.522L12.9875 16.9438C13.198 17.0707 13.4412 17.1327 13.6868 17.1221C13.9323 17.1114 14.1692 17.0287 14.368 16.8841C14.5667 16.7396 14.7185 16.5396 14.8042 16.3093C14.8899 16.079 14.9059 15.8285 14.85 15.5892L13.7945 11.011L17.318 7.93603C17.5044 7.77471 17.6389 7.56189 17.7046 7.32432C17.7704 7.08676 17.7644 6.83506 17.6875 6.60087ZM16.4985 6.99149L12.975 10.0665C12.8035 10.2157 12.676 10.4088 12.606 10.625C12.5361 10.8413 12.5265 11.0725 12.5781 11.2938L13.6367 15.8751L9.64689 13.4532C9.45223 13.3347 9.22871 13.272 9.0008 13.272C8.77288 13.272 8.54936 13.3347 8.3547 13.4532L4.37033 15.8751L5.42189 11.297C5.47357 11.0756 5.46393 10.8444 5.394 10.6281C5.32407 10.4119 5.1965 10.2188 5.02502 10.0696L1.50002 6.99618C1.49973 6.99385 1.49973 6.99149 1.50002 6.98915L6.14377 6.58759C6.37049 6.5676 6.58745 6.4861 6.77125 6.35186C6.95505 6.21763 7.09871 6.03576 7.18674 5.82587L9.00002 1.50634L10.8125 5.82587C10.9005 6.03576 11.0442 6.21763 11.228 6.35186C11.4118 6.4861 11.6288 6.5676 11.8555 6.58759L16.5 6.98915C16.5 6.98915 16.5 6.99384 16.5 6.99462L16.4985 6.99149Z" fill="#1C1C1C"/>
</svg>
